USFL
nRows=253
nColumns=2
inDegrees=yes
endheader
time	tib_ant_r	
2.20819	 67.243065	
2.24381	 67.099236	
2.27942	 67.077652	
2.31504	 66.914411	
2.35066	 66.739354	
2.38627	 66.661463	
2.42189	 66.440831	
2.4575	 66.289320	
2.49312	 66.196058	
2.52874	 65.944127	
2.56435	 65.754534	
2.59997	 65.760471	
2.63558	 65.659575	
2.6712	 65.612959	
2.70682	 65.615935	
2.74243	 65.655585	
2.77805	 65.697549	
2.81366	 65.742056	
2.84928	 65.872625	
2.8849	 65.942368	
2.92051	 65.989727	
2.95613	 66.247487	
2.99174	 66.342233	
3.02736	 66.440740	
3.06298	 66.622730	
3.09859	 66.679411	
3.13421	 66.769502	
3.16982	 66.789339	
3.20544	 66.832118	
3.24106	 66.816088	
3.27667	 66.794569	
3.31229	 66.733496	
3.3479	 66.743185	
3.38352	 66.765432	
3.41914	 66.779909	
3.45475	 66.795650	
3.49037	 66.796166	
3.52598	 66.847185	
3.5616	 66.870266	
3.59722	 66.822249	
3.63283	 66.756368	
3.66845	 66.748929	
3.70406	 66.745446	
3.73968	 66.748122	
3.7753	 66.742971	
3.81091	 66.765245	
3.84653	 66.773580	
3.88214	 66.785995	
3.91776	 66.713697	
3.95338	 66.637617	
3.98899	 66.615310	
4.02461	 66.652762	
4.06022	 66.690354	
4.09584	 66.782329	
4.13146	 66.694562	
4.16707	 66.589043	
4.20269	 66.741821	
4.2383	 66.359701	
4.27392	 66.345792	
4.30954	 66.394301	
4.34515	 65.682826	
4.38077	 65.124501	
4.41638	 56.688169	
4.452	 56.660692	
4.48762	 56.763047	
4.52323	 56.912374	
4.55885	 56.682046	
4.59446	 56.385136	
4.63008	 56.307985	
4.6657	 55.840752	
4.70131	 55.726344	
4.73693	 55.644014	
4.77254	 55.453345	
4.80816	 55.318187	
4.84378	 55.310953	
4.87939	 55.108290	
4.91501	 54.962288	
4.95062	 54.950885	
4.98624	 54.851321	
5.02186	 54.701791	
5.05747	 54.748278	
5.09309	 54.544028	
5.1287	 54.405245	
5.16432	 54.418384	
5.19994	 54.261549	
5.23555	 54.152222	
5.27117	 54.169225	
5.30678	 54.030659	
5.3424	 53.822641	
5.37802	 53.824547	
5.41363	 53.725289	
5.44925	 53.583611	
5.48486	 53.634482	
5.52048	 53.493405	
5.5561	 53.391942	
5.59171	 53.365306	
5.62733	 53.296455	
5.66294	 53.284504	
5.69856	 53.325630	
5.73418	 53.217314	
5.76979	 53.170585	
5.80541	 53.154085	
5.84102	 53.176363	
5.87664	 53.170609	
5.91226	 53.160940	
5.94787	 53.205971	
5.98349	 53.326946	
6.0191	 53.349105	
6.05472	 53.400983	
6.09034	 53.408478	
6.12595	 53.456478	
6.16157	 53.282630	
6.19718	 53.143700	
6.2328	 53.159016	
6.26842	 53.021968	
6.30403	 53.003999	
6.33965	 53.000076	
6.37526	 53.062063	
6.41088	 53.055199	
6.4465	 53.067725	
6.48211	 53.077717	
6.51773	 53.065118	
6.55334	 53.064327	
6.58896	 53.032187	
6.62458	 53.012251	
6.66019	 53.034912	
6.69581	 52.973496	
6.73142	 52.984491	
6.76704	 52.991313	
6.80266	 52.870141	
6.83827	 52.790410	
6.87389	 52.821709	
6.9095	 52.778131	
6.94512	 52.769175	
6.98074	 52.788123	
7.01635	 52.739364	
7.05197	 52.773021	
7.08758	 52.780690	
7.1232	 52.580624	
7.15882	 52.398849	
7.19443	 52.371247	
7.23005	 52.234758	
7.26566	 52.169040	
7.30128	 52.154099	
7.3369	 52.183636	
7.37251	 52.190907	
7.40813	 52.209428	
7.44374	 52.182686	
7.47936	 52.223637	
7.51498	 52.190173	
7.55059	 52.202388	
7.58621	 52.214667	
7.62182	 52.129673	
7.65744	 52.013200	
7.69306	 51.898554	
7.72867	 51.913520	
7.76429	 51.835482	
7.7999	 51.677796	
7.83552	 51.695044	
7.87114	 51.498874	
7.90675	 51.383411	
7.94237	 51.424360	
7.97798	 51.256549	
8.0136	 51.172828	
8.04922	 51.206994	
8.08483	 51.091920	
8.12045	 50.991167	
8.15606	 51.046523	
8.19168	 50.876613	
8.2273	 50.816332	
8.26291	 50.940763	
8.29853	 50.729083	
8.33414	 50.650361	
8.36976	 50.635653	
8.40538	 50.654110	
8.44099	 50.629155	
8.47661	 50.555005	
8.51222	 50.591708	
8.54784	 50.551663	
8.58346	 50.567109	
8.61907	 50.506667	
8.65469	 50.422754	
8.6903	 50.428932	
8.72592	 50.207538	
8.76154	 50.080973	
8.79715	 50.110334	
8.83277	 50.029572	
8.86838	 49.994031	
8.904	 49.986877	
8.93962	 49.980249	
8.97523	 50.038574	
9.01085	 50.053787	
9.04646	 50.003604	
9.08208	 49.958924	
9.1177	 49.926659	
9.15331	 49.918408	
9.18893	 49.917979	
9.22454	 49.928663	
9.26016	 49.954901	
9.29578	 49.977615	
9.33139	 49.992248	
9.36701	 49.974116	
9.40262	 49.913014	
9.43824	 49.918307	
9.47386	 49.930142	
9.50947	 49.928096	
9.54509	 49.961681	
9.5807	 49.838625	
9.61632	 49.737582	
9.65194	 49.715335	
9.68755	 49.751246	
9.72317	 49.767791	
9.75878	 49.760925	
9.7944	 49.960142	
9.83002	 49.998172	
9.86563	 49.754747	
9.90125	 49.837748	
9.93686	 49.612395	
9.97248	 49.436301	
10.0081	 59.653754	
10.0437	 59.782108	
10.0793	 59.610364	
10.1149	 59.859156	
10.1506	 59.989134	
10.1862	 59.949122	
10.2218	 60.774649	
10.2574	 61.090262	
10.293	 61.278268	
10.3286	 62.159617	
10.3643	 62.608520	
10.3999	 62.832227	
10.4355	 63.377432	
10.4711	 63.703003	
10.5067	 63.748304	
10.5423	 64.122040	
10.578	 64.237680	
10.6136	 64.211093	
10.6492	 64.457886	
10.6848	 64.499935	
10.7204	 64.508988	
10.756	 64.607788	
10.7916	 64.695406	
10.8273	 64.717987	
10.8629	 64.718811	
10.8985	 64.721463	
10.9341	 64.697216	
10.9697	 64.644730	
11.0053	 64.646079	
11.041	 64.587233	
11.0766	 64.412022	
11.1122	 64.394742	
11.1478	 64.357680	
11.1834	 64.385938	
